<svg width="33" height="33" viewBox="0 0 33 33" fill="none" xmlns="http://www.w3.org/2000/svg">
<g id="Social icon">
<path id="Vector" fill-rule="evenodd" clip-rule="evenodd" d="M16.333 0.166748C7.50004 0.166748 0.333008 7.33378 0.333008 16.1667C0.333008 24.9997 7.50004 32.1667 16.333 32.1667C25.1486 32.1667 32.333 24.9997 32.333 16.1667C32.333 7.33378 25.1486 0.166748 16.333 0.166748ZM26.9013 7.54202C28.8102 9.8674 29.9556 12.8348 29.9903 16.0452C29.5391 15.9585 25.0271 15.0387 20.4805 15.6114C20.3764 15.3858 20.2896 15.1428 20.1855 14.8999C19.9078 14.2405 19.5955 13.5637 19.2831 12.9216C24.3156 10.8739 26.6063 7.9238 26.9013 7.54202ZM16.333 2.52684C19.8037 2.52684 22.9794 3.82836 25.3916 5.96285C25.1486 6.30992 23.0835 9.06914 18.2245 10.8912C15.9859 6.77846 13.5044 3.41187 13.1226 2.89126C14.1464 2.64831 15.2224 2.52684 16.333 2.52684ZM10.5196 3.811C10.884 4.2969 13.3135 7.68085 15.5868 11.7068C9.20069 13.4075 3.56078 13.3728 2.9534 13.3728C3.83843 9.13855 6.70177 5.61577 10.5196 3.811ZM2.65839 16.1841C2.65839 16.0452 2.65839 15.9064 2.65839 15.7676C3.24841 15.7849 9.87748 15.8717 16.6974 13.824C17.0966 14.5875 17.461 15.3684 17.8081 16.1493C17.6345 16.2014 17.4436 16.2535 17.2701 16.3055C10.2245 18.5788 6.47618 24.7914 6.16381 25.312C3.99461 22.8999 2.65839 19.6895 2.65839 16.1841ZM16.333 29.8413C13.1746 29.8413 10.2593 28.7654 7.95123 26.9606C8.19418 26.4574 10.9707 21.1125 18.6757 18.4227C18.7104 18.4053 18.7278 18.4053 18.7625 18.388C20.6887 23.3684 21.4697 27.5506 21.6779 28.748C20.0293 29.4595 18.2245 29.8413 16.333 29.8413ZM23.9512 27.4986C23.8124 26.6656 23.0835 22.6743 21.2961 17.7632C25.5825 17.0864 29.3308 18.1971 29.7994 18.3533C29.2094 22.1537 27.0228 25.4335 23.9512 27.4986Z" fill="white"/>
</g>
</svg>
