<svg width="27" height="26" viewBox="0 0 27 26" fill="none" xmlns="http://www.w3.org/2000/svg">
<path id="Vector" d="M12.0943 0.952444C12.5526 -0.136168 14.1136 -0.136166 14.5719 0.952447L17.2769 7.37763C17.4703 7.83656 17.9072 8.15013 18.4086 8.18985L25.43 8.74596C26.6196 8.84018 27.102 10.3068 26.1956 11.0739L20.8461 15.6009C20.4641 15.9243 20.2971 16.4317 20.4138 16.9151L22.0482 23.684C22.3251 24.8308 21.0623 25.7373 20.0438 25.1228L14.0325 21.4954C13.6031 21.2363 13.0631 21.2363 12.6337 21.4954L6.62241 25.1228C5.6039 25.7373 4.34103 24.8308 4.61793 23.684L6.25232 16.9151C6.36906 16.4317 6.20219 15.9243 5.8201 15.6009L0.470505 11.0739C-0.435868 10.3068 0.046513 8.84018 1.23614 8.74596L8.25756 8.18985C8.75909 8.15013 9.19596 7.83656 9.38918 7.37763L12.0943 0.952444Z" fill="#006B6A"/>
</svg>
